<svg width="96" height="46" viewBox="0 0 96 46" fill="none" xmlns="http://www.w3.org/2000/svg">
<g id="w_o_down">
<path id="Vector 3" d="M8 8.18024H48H88" stroke="white" stroke-width="5" stroke-linecap="round"/>
<path id="Vector 5" d="M8 8.18024L40.4051 38.1802H88" stroke="white" stroke-width="5"/>
<path id="Ellipse 5" d="M95.5 8.18024C95.5 4.0381 92.1421 0.680237 88 0.680237C83.8579 0.680237 80.5 4.0381 80.5 8.18024C80.5 12.3224 83.8579 15.6802 88 15.6802C92.1421 15.6802 95.5 12.3224 95.5 8.18024Z" fill="white"/>
<path id="Ellipse 7" d="M95.5 38.1802C95.5 34.0381 92.1421 30.6802 88 30.6802C83.8579 30.6802 80.5 34.0381 80.5 38.1802C80.5 42.3224 83.8579 45.6802 88 45.6802C92.1421 45.6802 95.5 42.3224 95.5 38.1802Z" fill="white"/>
<circle id="Ellipse 6" cx="7.5" cy="7.5" r="6" transform="matrix(1 0 0 -1 0.5 15.6802)" fill="white"/>
</g>
</svg>
