<svg width="96" height="46" viewBox="0 0 96 46" fill="none" xmlns="http://www.w3.org/2000/svg">
<g id="w_o_up">
<path id="Vector 5" d="M8 38.3271L40.4051 8.32713H88" stroke="white" stroke-width="5"/>
<path id="Ellipse 5" d="M95.5 38.3271C95.5 42.4693 92.1421 45.8271 88 45.8271C83.8579 45.8271 80.5 42.4693 80.5 38.3271C80.5 34.185 83.8579 30.8271 88 30.8271C92.1421 30.8271 95.5 34.185 95.5 38.3271Z" fill="white"/>
<path id="Ellipse 7" d="M95.5 8.32713C95.5 12.4693 92.1421 15.8271 88 15.8271C83.8579 15.8271 80.5 12.4693 80.5 8.32713C80.5 4.185 83.8579 0.827133 88 0.827133C92.1421 0.827133 95.5 4.185 95.5 8.32713Z" fill="white"/>
<circle id="Ellipse 6" cx="8" cy="38.3271" r="6" fill="white"/>
</g>
</svg>
