<?xml version="1.0" encoding="utf-8" ?>
<svg baseProfile="tiny" height="600" id="svg" version="1.2" width="800" xmlns="http://www.w3.org/2000/svg" xmlns:ev="http://www.w3.org/2001/xml-events" xmlns:xlink="http://www.w3.org/1999/xlink"><defs /><circle cx="100" cy="100" fill="white" r="3" /><text fill="white" font-size="20" text-anchor="middle" x="100" y="120">Philosophy</text><circle cx="200" cy="70.0" fill="white" r="3" /><text fill="white" font-size="20" text-anchor="middle" x="200" y="90.0">Metaphysics</text><circle cx="300" cy="55.0" fill="white" r="3" /><text fill="white" font-size="20" text-anchor="middle" x="300" y="75.0">Epistemology</text><circle cx="400" cy="40.0" fill="white" r="3" /><text fill="white" font-size="20" text-anchor="middle" x="400" y="60.0">Rationalism</text><line stroke="rgb(100%,100%,100%)" stroke-width="3px" x1="300" x2="400" y1="55.0" y2="40.0" /><circle cx="400" cy="70.0" fill="white" r="3" /><text fill="white" font-size="20" text-anchor="middle" x="400" y="90.0">Empiricism</text><line stroke="rgb(100%,100%,100%)" stroke-width="3px" x1="300" x2="400" y1="55.0" y2="70.0" /><line stroke="rgb(100%,100%,100%)" stroke-width="3px" x1="200" x2="300" y1="70.0" y2="55.0" /><circle cx="300" cy="85.0" fill="white" r="3" /><text fill="white" font-size="20" text-anchor="middle" x="300" y="105.0">Ontology</text><line stroke="rgb(100%,100%,100%)" stroke-width="3px" x1="200" x2="300" y1="70.0" y2="85.0" /><line stroke="rgb(100%,100%,100%)" stroke-width="3px" x1="100" x2="200" y1="100" y2="70.0" /><circle cx="200" cy="100.0" fill="white" r="3" /><text fill="white" font-size="20" text-anchor="middle" x="200" y="120.0">Ethics</text><circle cx="300" cy="85.0" fill="white" r="3" /><text fill="white" font-size="20" text-anchor="middle" x="300" y="105.0">Utilitarianism</text><line stroke="rgb(100%,100%,100%)" stroke-width="3px" x1="200" x2="300" y1="100.0" y2="85.0" /><circle cx="300" cy="115.0" fill="white" r="3" /><text fill="white" font-size="20" text-anchor="middle" x="300" y="135.0">Deontology</text><line stroke="rgb(100%,100%,100%)" stroke-width="3px" x1="200" x2="300" y1="100.0" y2="115.0" /><line stroke="rgb(100%,100%,100%)" stroke-width="3px" x1="100" x2="200" y1="100" y2="100.0" /><circle cx="200" cy="130.0" fill="white" r="3" /><text fill="white" font-size="20" text-anchor="middle" x="200" y="150.0">Aesthetics</text><line stroke="rgb(100%,100%,100%)" stroke-width="3px" x1="100" x2="200" y1="100" y2="130.0" /></svg>