<svg width="896" height="696" viewBox="0 0 896 696" fill="none" xmlns="http://www.w3.org/2000/svg">
<g id="Section 1">
<path d="M0 1.99998C0 0.895414 0.895431 0 2 0H894C895.105 0 896 0.895431 896 2V694C896 695.105 895.105 696 894 696H1.99999C0.895423 696 0 695.105 0 694V1.99998Z" fill="#404040"/>
<g id="Component 1">
<circle id="Ellipse 3" cx="287" cy="293.5" r="7.5" fill="white"/>
<circle id="Ellipse 4" cx="207" cy="293.5" r="7.5" fill="white"/>
<path id="Vector 2" d="M207 293.5H247H287" stroke="white" stroke-width="5" stroke-linecap="round"/>
</g>
<path id="Union" fill-rule="evenodd" clip-rule="evenodd" d="M294.5 177C294.5 181.142 291.142 184.5 287 184.5C283.734 184.5 280.956 182.413 279.927 179.5H240.385L213.889 204.029C213.955 204.184 214.017 204.341 214.073 204.5H247H279.927C280.956 201.587 283.734 199.5 287 199.5C291.142 199.5 294.5 202.858 294.5 207C294.5 211.142 291.142 214.5 287 214.5C283.734 214.5 280.956 212.413 279.927 209.5H247H214.073C213.044 212.413 210.266 214.5 207 214.5C202.858 214.5 199.5 211.142 199.5 207C199.5 202.858 202.858 199.5 207 199.5C208.261 199.5 209.449 199.811 210.492 200.361L237.707 175.165L238.426 174.5H239.405H279.927C280.956 171.587 283.734 169.5 287 169.5C291.142 169.5 294.5 172.858 294.5 177Z" fill="white"/>
<path id="Union_2" fill-rule="evenodd" clip-rule="evenodd" d="M294.5 266.875C294.5 262.733 291.142 259.375 287 259.375C283.734 259.375 280.956 261.462 279.927 264.375H240.385L213.889 239.846C213.955 239.691 214.017 239.534 214.073 239.375H247H279.927C280.956 242.288 283.734 244.375 287 244.375C291.142 244.375 294.5 241.017 294.5 236.875C294.5 232.733 291.142 229.375 287 229.375C283.734 229.375 280.956 231.462 279.927 234.375H247H214.073C213.044 231.462 210.266 229.375 207 229.375C202.858 229.375 199.5 232.733 199.5 236.875C199.5 241.017 202.858 244.375 207 244.375C208.261 244.375 209.449 244.064 210.492 243.514L237.707 268.71L238.426 269.375H239.405H279.927C280.956 272.288 283.734 274.375 287 274.375C291.142 274.375 294.5 271.017 294.5 266.875Z" fill="white"/>
<path d="M2 1H894V-1H2V1ZM895 2V694H897V2H895ZM894 695H1.99999V697H894V695ZM1 694V1.99998H-1V694H1ZM1.99999 695C1.44771 695 1 694.552 1 694H-1C-1 695.657 0.343133 697 1.99999 697V695ZM895 694C895 694.552 894.552 695 894 695V697C895.657 697 897 695.657 897 694H895ZM894 1C894.552 1 895 1.44771 895 2H897C897 0.343151 895.657 -1 894 -1V1ZM2 -1C0.343156 -1 -1 0.343119 -1 1.99998H1C1 1.44771 1.4477 1 2 1V-1Z" fill="white" fill-opacity="0.1"/>
</g>
</svg>
